<svg width="512" height="512" viewBox="25 25 462 462" xmlns="http://www.w3.org/2000/svg"><g fill="none" fill-rule="evenodd"><path d="M181.088 171.472c-13.314 14.668-22.002 33.612-23.759 54.528h-5.326c-13.157 0-25.355 4.096-35.389 11.082a46.38 46.38 0 0 1-9.038-27.582c0-25.73 20.859-46.59 46.59-46.59 10.03 0 19.32 3.17 26.922 8.562zM161.5 139.14a8 8 0 1 1-16 0v-29.333a8 8 0 0 1 16 0v29.334zm-51.86 14.854a8 8 0 1 1-11.313 11.314l-20.742-20.743a8 8 0 0 1 11.313-11.313l20.743 20.742zm99.033 11.314a8 8 0 1 1-11.314-11.314l20.743-20.742a8 8 0 0 1 11.313 11.313l-20.742 20.743zM89.322 284.66a8 8 0 1 1-11.314-11.314l20.742-20.743a8 8 0 0 1 11.314 11.314l-20.742 20.742zm-34.516-67.826a8 8 0 1 1 0-16h29.335a8 8 0 1 1 0 16H54.806z" fill="#FFD400" fill-rule="nonzero"/><path d="M249.87 146c-45.752 0-83.754 35.117-87.558 80.418l-.385 4.582h-9.924C120.516 231 95 256.517 95 288c0 31.485 25.518 57 57.003 57H349c38.108 0 69-30.892 69-69 0-38.108-30.892-69-69-69-3.636 0-7.234.28-10.775.836l-4.103.643-1.385-3.916C320.425 169.747 287.407 146 249.871 146z" fill="#FFF"/><path d="M249.87 156c-40.542 0-74.223 31.123-77.593 71.255L171.122 241h-19.119C126.039 241 105 262.04 105 288c0 25.962 21.04 47 47.003 47H349c32.585 0 59-26.415 59-59s-26.415-59-59-59c-3.117 0-6.198.24-9.226.715l-12.31 1.93-4.155-11.748C312.4 177.046 283.137 156 249.871 156zm0-15c40.431 0 74.827 25.83 87.581 61.896A74.52 74.52 0 0 1 349 202c40.87 0 74 33.13 74 74s-33.13 74-74 74H152.003C117.76 350 90 322.25 90 288c0-34.242 27.751-62 62.003-62h5.326c3.998-47.608 43.907-85 92.542-85z" fill="#0070B3" fill-rule="nonzero"/><path d="M250 419.033l-15 8.658a6 6 0 0 1-6-10.393l14.815-8.55L229 400.196a6 6 0 1 1 5.998-10.394l15.002 8.66V381a6 6 0 0 1 12 0v17.25l14.635-8.447a6 6 0 1 1 5.999 10.394l-14.814 8.55 14.814 8.55a6 6 0 0 1-5.999 10.394L262 419.244V436a6 6 0 0 1-12 0v-16.967zm-82 0l-15 8.658a6 6 0 0 1-6-10.393l14.815-8.55L147 400.196a6 6 0 0 1 5.998-10.394l15.002 8.66V381a6 6 0 1 1 12 0v17.25l14.635-8.447a6 6 0 1 1 5.999 10.394l-14.814 8.55 14.814 8.55a6 6 0 0 1-5.999 10.394L180 419.244V436a6 6 0 1 1-12 0v-16.967zm164 0l-15 8.658a6 6 0 1 1-6-10.393l14.815-8.55L311 400.196a6 6 0 0 1 5.998-10.394l15.002 8.66V381a6 6 0 0 1 12 0v17.25l14.635-8.447a6 6 0 1 1 5.999 10.394l-14.814 8.55 14.814 8.55a6 6 0 0 1-5.999 10.394L344 419.244V436a6 6 0 0 1-12 0v-16.967z" fill="#12B2ED" fill-rule="nonzero"/></g></svg>