<svg width="512" height="512" viewBox="25 25 462 462" xmlns="http://www.w3.org/2000/svg"><g fill="none" fill-rule="evenodd"><path d="M132.166 240.09c-25.731 0-46.59-20.86-46.59-46.59 0-25.73 20.859-46.59 46.59-46.59 25.73 0 46.589 20.86 46.589 46.59 0 25.73-20.859 46.59-46.59 46.59zm7.334-116.95a8 8 0 1 1-16 0V93.808a8 8 0 1 1 16 0v29.334zm-51.86 14.854a8 8 0 1 1-11.313 11.314l-20.742-20.743a8 8 0 1 1 11.313-11.313l20.743 20.742zm99.033 11.314a8 8 0 1 1-11.314-11.314l20.743-20.742a8 8 0 1 1 11.313 11.313l-20.742 20.743zM67.322 268.66a8 8 0 1 1-11.314-11.314l20.742-20.743a8 8 0 1 1 11.314 11.314l-20.742 20.742zm-34.516-67.826a8 8 0 1 1 0-16h29.335a8 8 0 1 1 0 16H32.806z" fill="#FFD400" fill-rule="nonzero"/><path d="M249.87 146c-45.752 0-83.754 35.117-87.558 80.418l-.385 4.582h-9.924C120.516 231 95 256.517 95 288c0 31.485 25.518 57 57.003 57H349c38.108 0 69-30.892 69-69 0-38.108-30.892-69-69-69-3.636 0-7.234.28-10.775.836l-4.103.643-1.385-3.916C320.425 169.747 287.407 146 249.871 146z" fill="#FFF"/><path d="M249.87 156c-40.542 0-74.223 31.123-77.593 71.255L171.122 241h-19.119C126.039 241 105 262.04 105 288c0 25.962 21.04 47 47.003 47H349c32.585 0 59-26.415 59-59s-26.415-59-59-59c-3.117 0-6.198.24-9.226.715l-12.31 1.93-4.155-11.748C312.4 177.046 283.137 156 249.871 156zm0-15c40.431 0 74.827 25.83 87.581 61.896A74.52 74.52 0 0 1 349 202c40.87 0 74 33.13 74 74s-33.13 74-74 74H152.003C117.76 350 90 322.25 90 288c0-34.242 27.751-62 62.003-62h5.326c3.998-47.608 43.907-85 92.542-85z" fill="#0070B3" fill-rule="nonzero"/><g fill="#12B2ED"><path d="M358 404.617l6.5 3.752a5 5 0 0 0 5-8.661l-6.391-3.689 6.39-3.689a5 5 0 1 0-4.998-8.66L358 387.422V380a5 5 0 0 0-10 0v7.299l-6.287-3.63a5 5 0 1 0-5 8.661l6.392 3.69-6.391 3.688a5 5 0 1 0 4.999 8.66L348 404.74v7.343a5 5 0 1 0 10 0v-7.466z" fill-rule="nonzero"/><path d="M148.014 399.082a13.432 13.432 0 0 0-1.343 5.872c0 7.466 6.07 13.518 13.557 13.518 7.488 0 13.558-6.052 13.558-13.518a13.42 13.42 0 0 0-1.3-5.781l-7.592-19.27c-2.574-6.535-6.747-6.54-9.324 0l-7.556 19.18z"/><path d="M285 419.033l-15 8.658a6 6 0 0 1-6-10.393l14.815-8.55L264 400.196a6 6 0 0 1 5.998-10.394l15.002 8.66V381a6 6 0 1 1 12 0v17.25l14.635-8.447a6 6 0 1 1 5.999 10.394l-14.814 8.55 14.814 8.55a6 6 0 0 1-5.999 10.394L297 419.244V436a6 6 0 1 1-12 0v-16.967z" fill-rule="nonzero"/><path d="M234.21 413.191a21.3 21.3 0 0 1 2.13 9.313c0 11.84-9.626 21.437-21.5 21.437s-21.5-9.598-21.5-21.437c0-3.28.739-6.39 2.06-9.169l12.04-30.56c4.084-10.363 10.7-10.37 14.787 0l11.984 30.416z"/></g></g></svg>