<svg width="512" height="512" viewBox="25 25 462 462" xmlns="http://www.w3.org/2000/svg"><g fill="none" fill-rule="evenodd"><path d="M132.166 240.09c-25.731 0-46.59-20.86-46.59-46.59 0-25.73 20.859-46.59 46.59-46.59 25.73 0 46.589 20.86 46.589 46.59 0 25.73-20.859 46.59-46.59 46.59zm7.334-116.95a8 8 0 1 1-16 0V93.808a8 8 0 1 1 16 0v29.334zm-51.86 14.854a8 8 0 1 1-11.313 11.314l-20.742-20.743a8 8 0 1 1 11.313-11.313l20.743 20.742zm99.033 11.314a8 8 0 1 1-11.314-11.314l20.743-20.742a8 8 0 1 1 11.313 11.313l-20.742 20.743zM67.322 268.66a8 8 0 1 1-11.314-11.314l20.742-20.743a8 8 0 1 1 11.314 11.314l-20.742 20.742zm-34.516-67.826a8 8 0 1 1 0-16h29.335a8 8 0 1 1 0 16H32.806z" fill="#FFD400" fill-rule="nonzero"/><path d="M249.87 141c40.431 0 74.827 25.83 87.581 61.896A74.52 74.52 0 0 1 349 202c40.87 0 74 33.13 74 74s-33.13 74-74 74H152.003C117.76 350 90 322.25 90 288c0-34.242 27.751-62 62.003-62h5.326c3.998-47.608 43.907-85 92.542-85z" fill="#FFF"/><path d="M352.074 334.922C383.31 333.324 408 307.467 408 276c0-32.585-26.415-59-59-59-3.117 0-6.198.24-9.226.715l-12.31 1.93-4.155-11.748C312.4 177.046 283.137 156 249.871 156c-40.543 0-74.224 31.123-77.594 71.255L171.122 241h-19.119C126.039 241 105 262.04 105 288c0 25.962 21.04 47 47.003 47H159v.016a7.5 7.5 0 0 1 0 14.968V350h-6.997C117.76 350 90 322.25 90 288c0-34.242 27.751-62 62.003-62h5.326c3.998-47.608 43.907-85 92.542-85 40.43 0 74.826 25.83 87.58 61.896A74.52 74.52 0 0 1 349 202c40.87 0 74 33.13 74 74 0 39.864-31.522 72.366-71 73.94l-.002-.056a7.5 7.5 0 1 1 .076-14.962z" fill="#0070B3" fill-rule="nonzero"/><g fill="#12B2ED"><path d="M179.162 396.172a14.04 14.04 0 0 1 1.403 6.137c0 7.804-6.344 14.13-14.17 14.13-7.827 0-14.171-6.326-14.171-14.13 0-2.162.487-4.21 1.358-6.043l7.936-20.141c2.69-6.83 7.052-6.836 9.745 0l7.899 20.047zm51 34a14.04 14.04 0 0 1 1.403 6.137c0 7.804-6.344 14.13-14.17 14.13-7.827 0-14.171-6.326-14.171-14.13 0-2.162.487-4.21 1.358-6.043l7.936-20.141c2.69-6.83 7.052-6.836 9.745 0l7.899 20.047zm6.048-76.981a21.3 21.3 0 0 1 2.13 9.313c0 11.84-9.626 21.437-21.5 21.437s-21.5-9.598-21.5-21.437c0-3.28.739-6.39 2.06-9.169l12.04-30.56c4.084-10.363 10.7-10.37 14.787 0l11.984 30.416z"/><path d="M345 402.617l-6.5 3.752a5 5 0 0 1-5-8.661l6.391-3.689-6.39-3.689a5 5 0 1 1 4.998-8.66l6.501 3.752V378a5 5 0 0 1 10 0v7.299l6.287-3.63a5 5 0 1 1 5 8.661l-6.392 3.69 6.391 3.688a5 5 0 1 1-4.999 8.66L355 402.74v7.343a5 5 0 0 1-10 0v-7.466zm-57 34l-6.5 3.752a5 5 0 0 1-5-8.661l6.391-3.689-6.39-3.689a5 5 0 0 1 4.998-8.66l6.501 3.752V412a5 5 0 0 1 10 0v7.299l6.287-3.63a5 5 0 0 1 5 8.661l-6.392 3.69 6.391 3.688a5 5 0 1 1-4.999 8.66L298 436.74v7.343a5 5 0 1 1-10 0v-7.466zm-1-77.584l-15 8.658a6 6 0 0 1-6-10.393L281 349l-15-8.803a6 6 0 0 1 6-10.394l15 8.659V321a6 6 0 1 1 12 0v17.25l14.635-8.447a6 6 0 1 1 5.999 10.394L305 349l14.634 8.298a6 6 0 0 1-5.999 10.393L299 359.244V376a6 6 0 1 1-12 0v-16.967z" fill-rule="nonzero"/></g></g></svg>